# xmcd
#
# Track frame offsets: 
#        150
#        23107
#        44112
#        65267
#        85660
#        107045
#        130690
#        150065
#        171717
#        193050
#        213145
#        232920
#
# Disc length: 3447 seconds
#
# Revision: 6
# Processed by: cddbd v1.5.2PL0 Copyright (c) Steve Scherf et al.
# Submitted via: ExactAudioCopy v1.0b3
#
DISCID=960d750c
DTITLE=Lisette Melendez - True To Life
DYEAR=1994
DGENRE=Pop
TTITLE0=Will You Ever Save Me
TTITLE1=How 'Bout You
TTITLE2=Love Type Situation
TTITLE3=Honestly
TTITLE4=Going My Way
TTITLE5=Goody Goody
TTITLE6=My Warning (Take This Love And Run)
TTITLE7=Love Me Need Me
TTITLE8=On Again Off Again
TTITLE9=I Know That You Know
TTITLE10=Love Type Situation Reprise (Abrazame)
TTITLE11=Goody Goody (Hip Hop Mix)
EXTD=YEAR: 1995
EXTT0=
EXTT1=
EXTT2=
EXTT3=
EXTT4=
EXTT5=
EXTT6=
EXTT7=
EXTT8=
EXTT9=
EXTT10=
EXTT11=
PLAYORDER=
